HIERARCHY
ROOT hip
{
  OFFSET 5.51535 103.731 -2.80141
  CHANNELS 6 Xposition Yposition Zposition Zrotation Xrotation Yrotation
  JOINT abdomen
  {
    OFFSET 0 -1.186 -1.5018
    CHANNELS 6 Xposition Yposition Zposition Zrotation Xrotation Yrotation
    JOINT abdomen2
    {
      OFFSET 0 9.964 0.2134
      CHANNELS 6 Xposition Yposition Zposition Zrotation Xrotation Yrotation
      JOINT chest
      {
        OFFSET 0 13.134 -3.2573
        CHANNELS 6 Xposition Yposition Zposition Zrotation Xrotation Yrotation
        JOINT neck
        {
          OFFSET 0 20.686 -1.6905
          CHANNELS 6 Xposition Yposition Zposition Zrotation Xrotation Yrotation
          JOINT head
          {
            OFFSET 0 7.23801 -0.1237
            CHANNELS 6 Xposition Yposition Zposition Zrotation Xrotation Yrotation
            End Site
            {
              OFFSET 0 0 0
            }
          }
        }
        JOINT lCollar
        {
          OFFSET 1.7069 20.075 5.0056
          CHANNELS 6 Xposition Yposition Zposition Zrotation Xrotation Yrotation
          JOINT lShldr
          {
            OFFSET 13.6458 -0.0470195 -4.849
            CHANNELS 6 Xposition Yposition Zposition Zrotation Xrotation Yrotation
            JOINT lForeArm
            {
              OFFSET 28.3255 -0.97589 2.2888
              CHANNELS 6 Xposition Yposition Zposition Zrotation Xrotation Yrotation
              JOINT lHand
              {
                OFFSET 22.1583 -0.529998 10.8316
                CHANNELS 6 Xposition Yposition Zposition Zrotation Xrotation Yrotation
                JOINT lThumb1
                {
                  OFFSET 0.786 0.111997 2.5817
                  CHANNELS 6 Xposition Yposition Zposition Zrotation Xrotation Yrotation
                  JOINT lThumb2
                  {
                    OFFSET 0.360097 -0.877999 4.2331
                    CHANNELS 6 Xposition Yposition Zposition Zrotation Xrotation Yrotation
                    JOINT lThumb2_End
                    {
                      OFFSET 1.8127 -1.21601 2.2227
                      CHANNELS 6 Xposition Yposition Zposition Zrotation Xrotation Yrotation
                      End Site
                      {
                        OFFSET 0.0180981 -0.012195 0.0222007
                      }
                    }
                  }
                }
                JOINT lCarpal1
                {
                  OFFSET 0.9571 1.114 1.7695
                  CHANNELS 6 Xposition Yposition Zposition Zrotation Xrotation Yrotation
                  JOINT lIndex1
                  {
                    OFFSET 4.12461 0.486992 4.1451
                    CHANNELS 6 Xposition Yposition Zposition Zrotation Xrotation Yrotation
                    JOINT lIndex2
                    {
                      OFFSET 3.4052 -1.45401 2.7682
                      CHANNELS 6 Xposition Yposition Zposition Zrotation Xrotation Yrotation
                      JOINT lIndex2_End
                      {
                        OFFSET 1.45309 -1.79499 1.2713
                        CHANNELS 6 Xposition Yposition Zposition Zrotation Xrotation Yrotation
                        End Site
                        {
                          OFFSET 0.0144979 -0.0179083 0.0126995
                        }
                      }
                    }
                  }
                  JOINT lMid1
                  {
                    OFFSET 5.6954 0.209987 2.1184
                    CHANNELS 6 Xposition Yposition Zposition Zrotation Xrotation Yrotation
                    JOINT lMid2
                    {
                      OFFSET 3.9766 -1.53999 2.3863
                      CHANNELS 6 Xposition Yposition Zposition Zrotation Xrotation Yrotation
                      JOINT lMid2_End
                      {
                        OFFSET 1.4042 -1.926 1.125
                        CHANNELS 6 Xposition Yposition Zposition Zrotation Xrotation Yrotation
                        End Site
                        {
                          OFFSET 0.013999 -0.0193044 0.011301
                        }
                      }
                    }
                  }
                }
                JOINT lCarpal2
                {
                  OFFSET 2.0956 0.66 -0.3894
                  CHANNELS 6 Xposition Yposition Zposition Zrotation Xrotation Yrotation
                  JOINT lRing1
                  {
                    OFFSET 5.0395 -0.090013 2.4971
                    CHANNELS 6 Xposition Yposition Zposition Zrotation Xrotation Yrotation
                    JOINT lRing2
                    {
                      OFFSET 3.7921 -1.55199 1.4806
                      CHANNELS 6 Xposition Yposition Zposition Zrotation Xrotation Yrotation
                      JOINT lRing2_End
                      {
                        OFFSET 1.4655 -1.808 0.9609
                        CHANNELS 6 Xposition Yposition Zposition Zrotation Xrotation Yrotation
                        End Site
                        {
                          OFFSET 0.0147015 -0.0181014 0.00959957
                        }
                      }
                    }
                  }
                  JOINT lPinky1
                  {
                    OFFSET 4.9141 -1.269 0.3591
                    CHANNELS 6 Xposition Yposition Zposition Zrotation Xrotation Yrotation
                    JOINT lPinky2
                    {
                      OFFSET 3.1477 -1.685 0.8462
                      CHANNELS 6 Xposition Yposition Zposition Zrotation Xrotation Yrotation
                      JOINT lPinky2_End
                      {
                        OFFSET 0.805498 -1.58501 0.795499
                        CHANNELS 6 Xposition Yposition Zposition Zrotation Xrotation Yrotation
                        End Site
                        {
                          OFFSET 0.00809703 -0.0157944 0.00799848
                        }
                      }
                    }
                  }
                }
              }
            }
          }
        }
        JOINT rCollar
        {
          OFFSET -1.7069 20.075 5.0056
          CHANNELS 6 Xposition Yposition Zposition Zrotation Xrotation Yrotation
          JOINT rShldr
          {
            OFFSET -13.6458 -0.0470107 -4.849
            CHANNELS 6 Xposition Yposition Zposition Zrotation Xrotation Yrotation
            JOINT rForeArm
            {
              OFFSET -28.3255 -0.975895 2.2888
              CHANNELS 6 Xposition Yposition Zposition Zrotation Xrotation Yrotation
              JOINT rHand
              {
                OFFSET -22.1583 -0.530007 10.8316
                CHANNELS 6 Xposition Yposition Zposition Zrotation Xrotation Yrotation
                JOINT rThumb1
                {
                  OFFSET -0.785997 0.112005 2.5817
                  CHANNELS 6 Xposition Yposition Zposition Zrotation Xrotation Yrotation
                  JOINT rThumb2
                  {
                    OFFSET -0.360106 -0.877994 4.2331
                    CHANNELS 6 Xposition Yposition Zposition Zrotation Xrotation Yrotation
                    JOINT rThumb2_End
                    {
                      OFFSET -1.8127 -1.216 2.2227
                      CHANNELS 6 Xposition Yposition Zposition Zrotation Xrotation Yrotation
                      End Site
                      {
                        OFFSET -0.0180972 -0.0121973 0.0222005
                      }
                    }
                  }
                }
                JOINT rCarpal1
                {
                  OFFSET -0.9571 1.114 1.7695
                  CHANNELS 6 Xposition Yposition Zposition Zrotation Xrotation Yrotation
                  JOINT rIndex1
                  {
                    OFFSET -4.1246 0.487011 4.1451
                    CHANNELS 6 Xposition Yposition Zposition Zrotation Xrotation Yrotation
                    JOINT rIndex2
                    {
                      OFFSET -3.4052 -1.45401 2.7682
                      CHANNELS 6 Xposition Yposition Zposition Zrotation Xrotation Yrotation
                      JOINT rIndex2_End
                      {
                        OFFSET -1.4531 -1.795 1.2713
                        CHANNELS 6 Xposition Yposition Zposition Zrotation Xrotation Yrotation
                        End Site
                        {
                          OFFSET -0.0145077 -0.0180048 0.0127017
                        }
                      }
                    }
                  }
                  JOINT rMid1
                  {
                    OFFSET -5.6954 0.210002 2.1184
                    CHANNELS 6 Xposition Yposition Zposition Zrotation Xrotation Yrotation
                    JOINT rMid2
                    {
                      OFFSET -3.9766 -1.54 2.3863
                      CHANNELS 6 Xposition Yposition Zposition Zrotation Xrotation Yrotation
                      JOINT rMid2_End
                      {
                        OFFSET -1.4042 -1.926 1.125
                        CHANNELS 6 Xposition Yposition Zposition Zrotation Xrotation Yrotation
                        End Site
                        {
                          OFFSET -0.0139948 -0.0192916 0.0112994
                        }
                      }
                    }
                  }
                }
                JOINT rCarpal2
                {
                  OFFSET -2.0956 0.66 -0.3894
                  CHANNELS 6 Xposition Yposition Zposition Zrotation Xrotation Yrotation
                  JOINT rRing1
                  {
                    OFFSET -5.03951 -0.0899879 2.4971
                    CHANNELS 6 Xposition Yposition Zposition Zrotation Xrotation Yrotation
                    JOINT rRing2
                    {
                      OFFSET -3.7921 -1.55201 1.4806
                      CHANNELS 6 Xposition Yposition Zposition Zrotation Xrotation Yrotation
                      JOINT rRing2_End
                      {
                        OFFSET -1.4655 -1.808 0.960901
                        CHANNELS 6 Xposition Yposition Zposition Zrotation Xrotation Yrotation
                        End Site
                        {
                          OFFSET -0.0146934 -0.0180999 0.00959832
                        }
                      }
                    }
                  }
                  JOINT rPinky1
                  {
                    OFFSET -4.91411 -1.26899 0.359202
                    CHANNELS 6 Xposition Yposition Zposition Zrotation Xrotation Yrotation
                    JOINT rPinky2
                    {
                      OFFSET -3.14769 -1.68501 0.846199
                      CHANNELS 6 Xposition Yposition Zposition Zrotation Xrotation Yrotation
                      JOINT rPinky2_End
                      {
                        OFFSET -0.805498 -1.585 0.7955
                        CHANNELS 6 Xposition Yposition Zposition Zrotation Xrotation Yrotation
                        End Site
                        {
                          OFFSET -0.00810035 -0.0158035 0.00800029
                        }
                      }
                    }
                  }
                }
              }
            }
          }
        }
      }
    }
  }
  JOINT lThigh
  {
    OFFSET 8.367 -8.2066 0.5982
    CHANNELS 6 Xposition Yposition Zposition Zrotation Xrotation Yrotation
    JOINT lShin
    {
      OFFSET 2.1923 -43.463 -0.4932
      CHANNELS 6 Xposition Yposition Zposition Zrotation Xrotation Yrotation
      JOINT lFoot
      {
        OFFSET 0.733301 -45.8593 -2.6451
        CHANNELS 6 Xposition Yposition Zposition Zrotation Xrotation Yrotation
        End Site
        {
          OFFSET 2.6618 -4.2699 12.3931
        }
      }
    }
  }
  JOINT rThigh
  {
    OFFSET -8.367 -8.2066 0.5982
    CHANNELS 6 Xposition Yposition Zposition Zrotation Xrotation Yrotation
    JOINT rShin
    {
      OFFSET -2.1923 -43.463 -0.4931
      CHANNELS 6 Xposition Yposition Zposition Zrotation Xrotation Yrotation
      JOINT rFoot
      {
        OFFSET -0.733299 -45.8593 -2.6451
        CHANNELS 6 Xposition Yposition Zposition Zrotation Xrotation Yrotation
        End Site
        {
          OFFSET -2.6618 -4.2699 12.3931
        }
      }
    }
  }
}
MOTION
Frames:	4
Frame Time:	0.0333333
8.37945 104.715 -5.21241 -5.63662 -6.13389 -15.4159 -2.03777e-006 -1.18599 -1.5018 -0.069132 4.56818 1.98412 3.5627e-007 9.96399 0.2134 -0.298896 9.13119 3.99292 -3.2028e-007 13.134 -3.2573 -0.298896 9.13118 3.99292 3.2627e-006 20.686 -1.69047 -3.77665 0.286719 -1.00329 6.36739e-006 7.23799 -0.123681 3.10319 6.15284 4.28518 1.7069 20.075 5.0056 7.46037 3.57787 1.92313 13.6458 -0.0470152 -4.849 -65.0316 13.2782 -45.7231 28.3255 -0.975894 2.2888 -30.9017 15.6425 -70.9146 22.1583 -0.52999 10.8316 -68.4559 -31.1742 -60.6465 0.786003 0.111998 2.5817 0.109697 4.6639 11.1326 0.360094 -0.877996 4.2331 -0.724992 -0.0785884 -1.32743 1.8127 -1.21601 2.2227 5.97146 1.31685 11.1054 0.9571 1.114 1.7695 2.38542e-015 0 7.15625e-015 4.12461 0.486991 4.1451 -20.5711 9.11798 19.3471 3.4052 -1.45401 2.7682 -14.5616 5.50952 6.55515 1.4531 -1.79499 1.2713 -16.3707 6.05663 7.4407 5.6954 0.209986 2.1184 -14.1816 7.09004 9.0944 3.9766 -1.53999 2.3863 -21.1642 8.44014 12.1638 1.4042 -1.926 1.125 -18.4192 7.45273 8.68108 2.0956 0.66 -0.3894 2.38542e-015 0 7.15625e-015 5.03951 -0.0900161 2.4971 -13.9677 4.14529 7.78623 3.7921 -1.55199 1.4806 -20.0087 8.44521 10.6872 1.4655 -1.808 0.960901 -17.449 7.6163 9.21187 4.9141 -1.269 0.3591 -15.1479 3.43952 7.54524 3.14769 -1.685 0.846196 -17.9972 8.4366 9.48134 0.805497 -1.58501 0.795497 -18.1219 8.51456 9.56301 -1.7069 20.075 5.0056 -4.21664 1.89528 -0.994623 -13.6458 -0.0470097 -4.84901 78.4088 9.37453 25.652 -28.3255 -0.975908 2.2888 27.3643 13.9411 75.0034 -22.1583 -0.529998 10.8316 45.7902 -31.1887 9.24228 -0.786001 0.112003 2.5817 -27.9797 33.4575 39.9391 -0.360102 -0.877992 4.23309 4.24478 -2.96106 12.02 -1.8127 -1.216 2.2227 -3.79819 4.11235 -12.7493 -0.9571 1.114 1.7695 8.82781e-031 -1.59028e-014 3.18055e-015 -4.12461 0.487012 4.1451 13.181 6.35508 -12.1375 -3.4052 -1.454 2.76819 44.351 10.8049 -10.7982 -1.4531 -1.795 1.2713 45.4734 10.9501 -11.1586 -5.6954 0.210002 2.1184 8.65435 1.81719 -2.46511 -3.9766 -1.54 2.3863 54.2556 13.7347 -14.8079 -1.4042 -1.926 1.125 16.864 5.85805 -3.17969 -2.0956 0.66 -0.3894 8.82781e-031 -1.59028e-014 3.18055e-015 -5.03951 -0.0899901 2.49711 16.1321 0.118379 -5.61453 -3.7921 -1.55201 1.4806 22.6094 8.1898 -5.69417 -1.4655 -1.808 0.960902 24.3246 8.69601 -6.24017 -4.91411 -1.26899 0.359207 -5.21767 -8.4276 -6.05942 -3.1477 -1.68501 0.8462 27.0169 10.2957 -6.98427 -0.805501 -1.585 0.795503 16.6065 6.80602 -3.76143 8.367 -8.2066 0.598199 -0.606212 8.76938 -15.0143 2.1923 -43.4631 -0.493201 0.448438 -1.19071 1.94712 0.733302 -45.8593 -2.6451 4.1949 0.879696 0.803242 -8.36701 -8.2066 0.5982 3.25535 17.4868 35.2705 -2.20317 -43.4627 -0.47828 -5.99738 -1.99227 -20.7582 -0.7333 -45.8593 -2.6451 -7.4622 3.85341 -13.1975 
8.23614 104.72 -5.03809 -5.64489 -6.16148 -15.5014 -1.94701e-006 -1.18599 -1.5018 -0.0624303 4.5321 2.14097 -3.20963e-007 9.964 0.2134 -0.296678 9.05868 4.30723 2.68368e-007 13.134 -3.2573 -0.296682 9.05868 4.30723 1.67066e-006 20.686 -1.69048 -3.61661 -1.14506 -0.684095 -1.85086e-007 7.23801 -0.123695 3.30774 4.87984 4.6688 1.7069 20.075 5.0056 7.46039 3.57788 1.92306 13.6458 -0.0470058 -4.849 -64.3771 14.3481 -45.7015 28.3255 -0.975898 2.2888 -30.9017 15.6425 -70.9146 22.1583 -0.529984 10.8316 -68.456 -31.1743 -60.6466 0.785998 0.112001 2.5817 0.627407 4.18554 10.9216 0.360099 -0.878 4.2331 -1.29262 -0.128255 -2.36564 1.81269 -1.21601 2.2227 5.3177 1.10934 9.85511 0.9571 1.114 1.7695 6.36111e-015 -3.18055e-015 2.38542e-015 4.1246 0.486995 4.1451 -18.9472 8.8733 18.18 3.4052 -1.454 2.7682 -13.203 5.0781 5.89899 1.4531 -1.79499 1.2713 -15.0939 5.67346 6.81422 5.69541 0.209986 2.1184 -12.8294 7.08139 8.26119 3.9766 -1.53999 2.3863 -20.2997 8.15634 11.3207 1.4042 -1.926 1.125 -17.4505 7.14433 8.18178 2.0956 0.66 -0.3894 6.36111e-015 -3.18055e-015 2.38542e-015 5.03951 -0.090017 2.4971 -12.7319 4.05543 6.97265 3.7921 -1.55199 1.4806 -19.1218 8.16638 10.1731 1.4655 -1.808 0.960899 -16.4883 7.28608 8.66467 4.9141 -1.269 0.359099 -13.9196 3.46714 6.62104 3.1477 -1.68501 0.846202 -17.138 8.11909 8.98876 0.805497 -1.58501 0.795498 -17.2009 8.17527 9.03476 -1.7069 20.075 5.0056 -4.21663 1.8953 -0.994632 -13.6458 -0.0470148 -4.84901 78.3027 9.00316 24.3307 -28.3255 -0.975885 2.2888 27.5015 14.4944 76.0935 -22.1583 -0.530002 10.8316 45.2561 -31.8491 8.47483 -0.785999 0.11201 2.5817 -27.7785 33.4538 40.2547 -0.360102 -0.877992 4.2331 3.83997 -2.733 10.934 -1.81269 -1.216 2.2227 -4.08242 4.49407 -13.8113 -0.9571 1.114 1.7695 3.18055e-015 9.54166e-015 -6.36111e-015 -4.12461 0.487009 4.1451 13.181 6.3551 -12.1375 -3.4052 -1.454 2.7682 44.351 10.8049 -10.7982 -1.4531 -1.795 1.2713 45.4711 10.9498 -11.1579 -5.6954 0.210006 2.1184 9.65107 2.14396 -2.6319 -3.9766 -1.54 2.38631 55.3164 13.8363 -15.1938 -1.4042 -1.926 1.12499 17.8666 6.16925 -3.41904 -2.0956 0.66 -0.3894 3.18055e-015 9.54166e-015 -6.36111e-015 -5.03951 -0.0899846 2.4971 17.127 0.416167 -5.79698 -3.7921 -1.552 1.48059 23.6171 8.48889 -6.01372 -1.4655 -1.808 0.960895 25.3302 8.98372 -6.56703 -4.91411 -1.26898 0.359198 -4.24364 -8.12956 -6.07813 -3.1477 -1.68501 0.846202 28.0255 10.597 -7.32598 -0.805501 -1.585 0.795503 17.5894 7.16397 -4.04019 8.36701 -8.20661 0.598199 -0.551809 8.99305 -15.0193 2.1923 -43.4631 -0.4932 0.460454 -1.28899 1.99119 0.733302 -45.8594 -2.6451 4.16696 0.776346 0.849453 -8.36703 -8.20661 0.598203 2.96522 17.5801 33.7545 -2.19229 -43.463 -0.493112 -5.51444 -2.24876 -18.8829 -0.733299 -45.8593 -2.6451 -7.3668 3.38153 -11.967 
8.08372 104.72 -4.8319 -5.65662 -6.19027 -15.6204 6.36789e-007 -1.186 -1.5018 -0.0565177 4.49176 2.30907 4.03769e-007 9.964 0.2134 -0.29656 8.97758 4.64414 1.17173e-007 13.134 -3.2573 -0.296562 8.97759 4.64414 -3.25696e-006 20.6861 -1.6905 -3.41627 -2.73226 -0.305566 1.40386e-006 7.23801 -0.123694 3.57092 3.44753 5.1173 1.7069 20.075 5.0056 7.46034 3.57796 1.92325 13.6458 -0.0470068 -4.84901 -63.6841 15.4635 -45.6676 28.3255 -0.975895 2.2888 -30.9017 15.6426 -70.9146 22.1583 -0.529987 10.8316 -68.4558 -31.1742 -60.6464 0.786001 0.111999 2.5817 1.22112 3.63474 10.6844 0.360101 -0.878003 4.2331 -1.94431 -0.172516 -3.55632 1.8127 -1.21602 2.2227 4.55431 0.890631 8.42321 0.9571 1.114 1.7695 -7.15625e-015 -3.18055e-015 9.54166e-015 4.12461 0.486991 4.1451 -17.0763 8.56262 16.8518 3.4052 -1.45401 2.76821 -11.652 4.56308 5.15771 1.4531 -1.79499 1.2713 -13.6304 5.21538 6.10443 5.69541 0.209986 2.1184 -11.2683 7.0482 7.3176 3.9766 -1.54 2.3863 -19.3055 7.82173 10.3556 1.4042 -1.926 1.12501 -16.336 6.77779 7.61213 2.0956 0.66 -0.3894 -7.15625e-015 -3.18055e-015 9.54166e-015 5.0395 -0.0900142 2.4971 -11.3041 3.92104 6.04093 3.7921 -1.55199 1.4806 -18.0994 7.83397 9.58411 1.4655 -1.808 0.960903 -15.384 6.89366 8.04051 4.9141 -1.269 0.359101 -12.4971 3.47975 5.57148 3.14771 -1.68501 0.846204 -16.1489 7.74287 8.4257 0.805501 -1.58501 0.795501 -16.1669 7.74985 8.43623 -1.7069 20.075 5.0056 -4.21662 1.89534 -0.994638 -13.6458 -0.0470152 -4.849 78.1658 8.63515 22.9008 -28.3255 -0.975881 2.2888 27.6444 15.1315 77.3455 -22.1583 -0.530002 10.8316 44.6179 -32.6096 7.57906 -0.786001 0.112003 2.5817 -27.5197 33.441 40.4602 -0.360102 -0.877991 4.2331 3.38143 -2.46221 9.6913 -1.8127 -1.216 2.2227 -4.38048 4.92895 -14.9999 -0.9571 1.114 1.7695 -3.18055e-015 9.54166e-015 -0 -4.12461 0.487013 4.1451 13.181 6.35515 -12.1375 -3.4052 -1.454 2.7682 44.351 10.8049 -10.7982 -1.4531 -1.795 1.27131 45.4688 10.9494 -11.1571 -5.6954 0.209999 2.1184 10.649 2.46779 -2.8044 -3.9766 -1.54 2.3863 56.3784 13.931 -15.5818 -1.4042 -1.926 1.125 18.8678 6.47524 -3.66317 -2.0956 0.66 -0.3894 -3.18055e-015 9.54166e-015 -0 -5.03951 -0.0899833 2.4971 18.1229 0.710714 -5.98459 -3.7921 -1.55201 1.48061 24.6272 8.78234 -6.33881 -1.4655 -1.808 0.960896 26.3383 9.26571 -6.89924 -4.91411 -1.26898 0.359199 -3.14203 -7.77273 -6.13171 -3.1477 -1.68501 0.846199 29.0369 10.8923 -7.67336 -0.805499 -1.58499 0.795497 18.5749 7.51713 -4.32532 8.36701 -8.2066 0.598197 -0.499525 9.2522 -15.0218 2.1923 -43.463 -0.493201 0.476037 -1.40216 2.05126 0.733301 -45.8593 -2.6451 4.1437 0.656499 0.911911 -8.36701 -8.2066 0.5982 2.60199 17.8414 31.9196 -2.24834 -43.4611 -0.405465 -5.02238 -2.66796 -16.6563 -0.733299 -45.8593 -2.6451 -7.20211 2.81776 -10.4983 
7.92554 104.714 -4.59702 -5.66915 -6.22041 -15.7517 -8.58344e-007 -1.186 -1.5018 -0.0507109 4.44757 2.4844 4.08086e-007 9.96399 0.2134 -0.29679 8.88878 4.99537 3.19372e-007 13.134 -3.2573 -0.296791 8.88878 4.99538 -7.79791e-006 20.6863 -1.69054 -3.19772 -4.33203 0.094679 2.3668e-006 7.23801 -0.123688 3.86227 1.95797 5.58605 1.7069 20.075 5.0056 7.46035 3.57791 1.92321 13.6458 -0.0470145 -4.849 -63.0265 16.5258 -45.6039 28.3255 -0.975898 2.2888 -30.9017 15.6426 -70.9145 22.1583 -0.529988 10.8316 -68.4559 -31.1742 -60.6465 0.786009 0.111993 2.5817 1.81219 3.08155 10.453 0.360094 -0.877995 4.2331 -2.59677 -0.203226 -4.74743 1.81269 -1.21601 2.2227 3.78571 0.691104 6.98862 0.9571 1.114 1.7695 -1.11319e-014 0 -5.56597e-015 4.1246 0.486995 4.1451 -15.2147 8.20936 15.5358 3.4052 -1.45401 2.7682 -10.1088 4.02829 4.43121 1.4531 -1.79499 1.2713 -12.1738 4.73946 5.40712 5.6954 0.209987 2.1184 -9.70822 6.9895 6.37538 3.9766 -1.54 2.3863 -18.3049 7.47612 9.39071 1.4042 -1.926 1.125 -15.2261 6.40039 7.05015 2.0956 0.66 -0.3894 -1.11319e-014 0 -5.56597e-015 5.03951 -0.0900158 2.4971 -9.87893 3.76359 5.11301 3.7921 -1.552 1.4806 -17.0813 7.49121 9.00163 1.4655 -1.808 0.960902 -14.2851 6.48939 7.42455 4.9141 -1.269 0.359102 -11.0746 3.46634 4.52193 3.1477 -1.685 0.846202 -15.1645 7.35714 7.86982 0.805499 -1.58501 0.7955 -15.0959 7.36363 7.84195 -1.7069 20.075 5.0056 -4.2166 1.8953 -0.994731 -13.6458 -0.0470058 -4.849 78.0158 8.31103 21.4853 -28.3255 -0.975875 2.2888 27.7732 15.7713 78.5996 -22.1583 -0.529998 10.8316 43.9461 -33.3781 6.66626 -0.786001 0.112004 2.5817 -27.245 33.424 40.579 -0.360109 -0.877993 4.23311 2.92896 -2.18159 8.45111 -1.81269 -1.216 2.22269 -4.66961 5.36988 -16.1871 -0.9571 1.114 1.7695 6.36111e-015 1.27222e-014 -6.36111e-015 -4.12461 0.487013 4.1451 13.181 6.35524 -12.1375 -3.4052 -1.45401 2.7682 44.351 10.8049 -10.7983 -1.4531 -1.795 1.2713 45.4665 10.9491 -11.1564 -5.6954 0.209997 2.11841 11.584 2.7662 -2.96199 -3.9766 -1.54 2.3863 57.3216 14.009 -15.9276 -1.4042 -1.926 1.125 19.7874 6.75199 -3.8918 -2.0956 0.66 -0.3894 6.36111e-015 1.27222e-014 -6.36111e-015 -5.03951 -0.0899908 2.49711 19.0412 0.988784 -6.15717 -3.7921 -1.55201 1.4806 25.5681 9.04993 -6.64579 -1.4655 -1.80801 0.960902 27.2532 9.51604 -7.20453 -4.91411 -1.26898 0.359198 -2.04102 -7.41698 -6.19214 -3.1477 -1.68501 0.846201 29.955 11.1543 -7.9927 -0.805502 -1.585 0.795505 19.4788 7.83595 -4.59177 8.36702 -8.20661 0.598201 -0.46135 9.49853 -15.0218 2.1923 -43.4631 -0.493201 0.49323 -1.44458 2.12104 0.733302 -45.8593 -2.6451 4.12502 0.483012 0.979996 -8.36702 -8.20662 0.598201 2.23616 17.7842 29.9318 -2.19328 -43.463 -0.491436 -4.35246 -2.72396 -14.3057 -0.733301 -45.8594 -2.6451 -6.9471 2.14523 -8.9441 
